<svg width="48" height="48" viewBox="0 0 48 48" fill="none" xmlns="http://www.w3.org/2000/svg">
<path d="M24 42C33.9411 42 42 33.9411 42 24C42 14.0589 33.9411 6 24 6C14.0589 6 6 14.0589 6 24C6 33.9411 14.0589 42 24 42Z" fill="#EA4C89"/>
<path fill-rule="evenodd" clip-rule="evenodd" d="M24 6C14.0629 6 6 14.0629 6 24C6 33.9371 14.0629 42 24 42C33.9176 42 42 33.9371 42 24C42 14.0629 33.9176 6 24 6ZM35.8894 14.2972C38.0369 16.9132 39.3254 20.2516 39.3644 23.8633C38.8568 23.7657 33.7809 22.731 28.666 23.3753C28.5488 23.1215 28.4512 22.8481 28.3341 22.5748C28.0217 21.833 27.6703 21.0716 27.3189 20.3492C32.9805 18.0456 35.5575 14.7267 35.8894 14.2972ZM24 8.6551C27.9046 8.6551 31.4772 10.1193 34.1909 12.5206C33.9176 12.9111 31.5943 16.0152 26.128 18.0651C23.6095 13.4382 20.8178 9.65076 20.3883 9.06508C21.5401 8.79176 22.7505 8.6551 24 8.6551ZM17.4599 10.0998C17.8698 10.6464 20.603 14.4534 23.1605 18.9826C15.9761 20.8959 9.63125 20.8568 8.94794 20.8568C9.94358 16.0933 13.1649 12.1302 17.4599 10.0998ZM8.61605 24.0195C8.61605 23.8633 8.61605 23.7072 8.61605 23.551C9.27983 23.5705 16.7375 23.6681 24.41 21.3644C24.859 22.2234 25.269 23.1019 25.6594 23.9805C25.4642 24.0391 25.2495 24.0976 25.0542 24.1562C17.128 26.7137 12.9111 33.7028 12.5597 34.2885C10.1193 31.5748 8.61605 27.9631 8.61605 24.0195ZM24 39.384C20.4469 39.384 17.167 38.1735 14.5705 36.1432C14.8438 35.577 17.9675 29.564 26.6356 26.538C26.6746 26.5185 26.6941 26.5185 26.7332 26.4989C28.9002 32.1019 29.7788 36.8069 30.013 38.154C28.1584 38.9544 26.128 39.384 24 39.384ZM32.5705 36.7484C32.4143 35.8113 31.5944 31.321 29.5835 25.7961C34.4057 25.0347 38.6226 26.2842 39.1497 26.4599C38.4859 30.7353 36.026 34.4252 32.5705 36.7484Z" fill="#C32361"/>
</svg>
