<svg width="46" height="46" viewBox="0 0 46 46" fill="none" xmlns="http://www.w3.org/2000/svg">
<path d="M23 46C35.7025 46 46 35.7025 46 23C46 10.2975 35.7025 0 23 0C10.2975 0 0 10.2975 0 23C0 35.7025 10.2975 46 23 46Z" fill="#00B22D"/>
<path d="M26.6834 12.3086C26.6834 13.8359 27.9232 15.0758 29.4685 15.0758C30.9959 15.0758 32.2357 13.8359 32.2357 12.3086C32.2357 10.7633 30.9959 9.52344 29.4685 9.52344C27.9232 9.52344 26.6834 10.7633 26.6834 12.3086ZM20.0799 9.98164C16.4861 9.98164 14.1592 12.1199 13.701 14.3121C13.6561 14.5727 13.6111 14.8332 13.6111 15.0938V17.1422H11.1943V21.2121H13.6111V30.466H11.1943V34.6797C14.6982 34.6797 18.2111 34.6797 21.715 34.6797V30.475H19.2713V21.2211H26.6295V30.475H24.2576V34.6797C27.7615 34.6797 31.2924 34.6797 34.7963 34.6797V30.475H32.2896V17.1422H19.2623V15.9203C19.2623 14.9141 20.2416 14.3121 21.0682 14.3121H23.0896V9.98164H20.0799V9.98164Z" fill="white"/>
</svg>
