<svg width="48" height="48" viewBox="0 0 48 48" fill="none" xmlns="http://www.w3.org/2000/svg">
<path fill-rule="evenodd" clip-rule="evenodd" d="M23.9983 6C14.0588 6 6 14.0588 6 24.0005C6 31.9533 11.1571 38.6993 18.3098 41.0806C19.2104 41.2453 19.5385 40.6895 19.5385 40.2121C19.5385 39.7856 19.5231 38.6529 19.5142 37.1512C14.5074 38.2386 13.4511 34.7379 13.4511 34.7379C12.6322 32.6594 11.4521 32.1058 11.4521 32.1058C9.8178 30.9886 11.5759 31.0107 11.5759 31.0107C13.3825 31.1389 14.3329 32.866 14.3329 32.866C15.9384 35.6164 18.5462 34.8219 19.5717 34.3622C19.7352 33.1986 20.1993 32.4052 20.7143 31.9555C16.7175 31.5013 12.5151 29.9565 12.5151 23.0591C12.5151 21.0944 13.2168 19.4877 14.3682 18.2291C14.1826 17.7738 13.5649 15.9439 14.5439 13.4654C14.5439 13.4654 16.0556 12.9814 19.4943 15.3108C20.9297 14.9119 22.4701 14.7119 24.0006 14.7052C25.5288 14.7119 27.0692 14.9119 28.5068 15.3108C31.9433 12.9814 33.4517 13.4654 33.4517 13.4654C34.434 15.9439 33.8163 17.7738 33.6307 18.2291C34.7843 19.4877 35.4816 21.0944 35.4816 23.0591C35.4816 29.9742 31.2726 31.4958 27.2625 31.9411C27.909 32.4969 28.4847 33.5953 28.4847 35.2749C28.4847 37.6805 28.4626 39.622 28.4626 40.2121C28.4626 40.6939 28.7863 41.2541 29.7002 41.0784C36.8474 38.6927 42 31.9511 42 24.0005C42 14.0588 33.9401 6 23.9983 6Z" fill="black"/>
</svg>
