<svg width="46" height="46" viewBox="0 0 46 46" fill="none" xmlns="http://www.w3.org/2000/svg">
<path d="M0.984036 13.6213C2.53096 6.1315 7.29073 1.95991 14.7151 0.699702C20.2034 -0.231682 25.6938 -0.243477 31.173 0.725856C38.8174 2.07816 43.413 6.49304 44.877 14.0961C46.008 19.972 46.0258 25.9106 44.8592 31.7809C43.2942 39.2189 38.4117 43.8102 31.0147 45.0657C25.5263 45.997 20.036 46.0088 14.5568 45.0396C6.91234 43.6872 2.29638 39.0519 0.832478 31.4489C-0.356288 25.5343 -0.241905 19.5582 0.984036 13.6212V13.6213Z" fill="black"/>
<path d="M0.984036 13.6213C2.53096 6.1315 7.29073 1.95991 14.7151 0.699702C20.2034 -0.231682 25.6938 -0.243477 31.173 0.725856C38.8174 2.07816 43.413 6.49304 44.877 14.0961C46.008 19.972 46.0258 25.9106 44.8592 31.7809C43.2942 39.2189 38.4117 43.8102 31.0147 45.0657C25.5263 45.997 20.036 46.0088 14.5568 45.0396C6.91234 43.6872 2.29638 39.0519 0.832478 31.4489C-0.356288 25.5343 -0.241905 19.5582 0.984036 13.6212V13.6213Z" fill="#28B7B5"/>
<path fill-rule="evenodd" clip-rule="evenodd" d="M37.4903 26.452C37.2918 27.2028 36.4792 27.7426 35.2136 28.0667C35.7852 26.7748 36.159 25.3761 36.302 23.9091C37.2457 24.8233 37.6892 25.6994 37.4903 26.452V26.452ZM21.7848 26.9612C17.5365 25.8287 13.8592 24.2602 11.4313 22.6754C11.431 22.6416 11.43 22.608 11.43 22.5741C11.43 16.2244 16.5556 11.0769 22.8784 11.0769C29.2011 11.0769 34.3267 16.2244 34.3267 22.5741C34.3267 24.7024 33.7501 26.6948 32.7462 28.4041C29.8683 28.5475 25.9623 28.0749 21.7848 26.9612V26.9612ZM8.3985 18.6964C8.58887 17.9762 9.34625 17.451 10.5247 17.1234C9.96843 18.3931 9.61091 19.7415 9.46482 21.1208C8.60388 20.2494 8.20813 19.4165 8.3985 18.6964ZM22.8784 9.02563C30.0207 9.02563 35.8658 14.6 36.3376 21.6528C38.5914 23.4704 39.748 25.3755 39.3161 27.0096C38.8818 28.6526 36.9182 29.734 34.0382 30.1854C34.0236 30.2073 32.4382 30.4108 31.5299 30.4114C28.5354 30.508 24.9323 30.0799 21.1637 29.0753C12.0802 26.6536 5.47979 21.8027 6.42141 18.2403C6.8528 16.6081 8.79363 15.5305 11.6425 15.0737C14.0603 11.4282 18.1897 9.02563 22.8784 9.02563ZM28.8862 32.3622C30.068 32.4271 31.1858 32.4223 32.2187 32.3497C29.7947 34.6864 26.5036 36.1228 22.8784 36.1228C16.6302 36.1228 11.3751 31.8568 9.84095 26.0672C10.6798 26.6839 11.6427 27.2864 12.7097 27.8603C14.6154 31.5501 18.4534 34.0715 22.8784 34.0715C25.082 34.0715 27.1397 33.4456 28.8862 32.3622Z" fill="white"/>
</svg>
