<svg width="48" height="48" viewBox="0 0 48 48" fill="none" xmlns="http://www.w3.org/2000/svg">
<path d="M26.5623 23.9998C26.5623 30.2729 21.5116 35.3586 15.281 35.3586C9.05037 35.3586 4 30.2745 4 23.9998C4 17.7252 9.05076 12.6414 15.281 12.6414C21.5112 12.6414 26.5623 17.7267 26.5623 23.9998ZM38.9381 23.9998C38.9381 29.9052 36.4126 34.692 33.2975 34.692C30.1823 34.692 27.6568 29.9037 27.6568 23.9998C27.6568 18.096 30.1823 13.3076 33.2975 13.3076C36.4126 13.3076 38.9381 18.096 38.9381 23.9998ZM44 23.9998C44 29.2908 43.1117 33.5796 42.0161 33.5796C40.9205 33.5796 40.0322 29.2892 40.0322 23.9998C40.0322 18.7104 40.9205 14.42 42.0165 14.42C43.1124 14.42 44 18.7093 44 23.9998Z" fill="black"/>
</svg>
